<svg xmlns="http://www.w3.org/2000/svg" width="20" height="20" viewBox="0 0 20 20">
    <defs>
        <style>
            .cls-1{fill:#fff}
        </style>
    </defs>
    <path id="linkedin" d="M17.039 17.043h-2.961V12.4c0-1.107-.023-2.531-1.543-2.531-1.544 0-1.78 1.2-1.78 2.449v4.723H7.792V7.5h2.845v1.3h.038a3.121 3.121 0 0 1 2.808-1.542c3 0 3.556 1.975 3.556 4.546v5.238zM4.448 6.194a1.72 1.72 0 1 1 1.72-1.721 1.718 1.718 0 0 1-1.72 1.721zm1.485 10.849h-2.97V7.5h2.97zM18.521 0H1.476A1.458 1.458 0 0 0 0 1.441v17.118A1.458 1.458 0 0 0 1.476 20h17.042A1.463 1.463 0 0 0 20 18.559V1.441A1.464 1.464 0 0 0 18.518 0z" class="cls-1"/>
</svg>
