<svg id="Layer_1" data-name="Layer 1" xmlns="http://www.w3.org/2000/svg" xmlns:xlink="http://www.w3.org/1999/xlink" viewBox="0 0 144 144"><defs><style>.cls-1,.cls-3{fill:none;}.cls-2{clip-path:url(#clip-path);}.cls-3{stroke:#231f20;stroke-width:2px;}.cls-4{clip-path:url(#clip-path-2);}.cls-5{fill:#fff;}.cls-6{fill:#cb2986;}.cls-7{fill:#b7d081;}</style><clipPath id="clip-path"><rect class="cls-1" x="49.5" y="40.83" width="45" height="62.33"/></clipPath><clipPath id="clip-path-2"><rect class="cls-1" x="49.5" y="40.63" width="45" height="62.33"/></clipPath></defs><title>Hover State</title><g class="cls-2"><polyline class="cls-3" points="67.2 66.23 67.22 42.94 67.22 41.94 66.22 41.94 51.51 41.85 50.5 41.84 50.5 42.85 50.48 66.16"/></g><polygon points="50.5 71.41 50.5 100.87 50.5 101.86 51.49 101.87 66.22 101.95 67.22 101.96 67.22 100.95 67.22 71.53 67.22 70.53 66.23 70.53 51.51 70.41 50.5 70.4 50.5 71.41"/><g class="cls-4"><polygon class="cls-3" points="50.5 71.41 50.5 100.87 50.5 101.86 51.49 101.87 66.22 101.95 67.22 101.96 67.22 100.95 67.22 71.53 67.22 70.53 66.23 70.53 51.51 70.41 50.5 70.4 50.5 71.41"/></g><polygon class="cls-5" points="76.78 61.34 76.78 100.83 76.78 101.83 77.77 101.83 92.49 101.95 93.5 101.96 93.5 100.95 93.5 61.49 93.5 60.5 92.51 60.49 77.79 60.34 76.78 60.32 76.78 61.34"/><g class="cls-4"><polygon class="cls-3" points="76.78 61.34 76.78 100.83 76.78 101.83 77.77 101.83 92.49 101.95 93.5 101.96 93.5 100.95 93.5 61.49 93.5 60.5 92.51 60.49 77.79 60.34 76.78 60.32 76.78 61.34"/></g><rect class="cls-6" x="53.23" y="54.96" width="11.23" height="11.23"/><polygon class="cls-7" points="85.14 46.38 76.25 55.8 94.03 55.99 85.14 46.38"/></svg>