<svg id="Layer_1" data-name="Layer 1" xmlns="http://www.w3.org/2000/svg" xmlns:xlink="http://www.w3.org/1999/xlink" viewBox="0 0 144 144"><defs><style>.cls-1,.cls-4{fill:none;}.cls-2{fill:#b7d081;}.cls-3{clip-path:url(#clip-path);}.cls-4{stroke:#231f20;stroke-width:2px;}.cls-5{fill:#231f20;}</style><clipPath id="clip-path"><rect class="cls-1" x="36.72" y="45.51" width="70.56" height="52.58"/></clipPath></defs><title>Hover State</title><polygon class="cls-2" points="37.8 46.48 37.8 59.44 83.02 49.55 106.2 59.44 106.2 46.48 37.8 46.48"/><g class="cls-3"><path class="cls-4" d="M83.21,77A14.32,14.32,0,1,0,68.65,62.7,14.44,14.44,0,0,0,83.21,77Z"/><path class="cls-5" d="M83.21,62.51s11.24,8.71,11.24,8.73c3.33-2.59,3.63-8.73,3.33-8.73,0-8.1-6.52-14.13-14.57-14.13A14.36,14.36,0,0,0,68.64,62.51c0,2.19,1,7.23,3.17,8.73.2,0,11.4-8.73,11.4-8.73"/><path class="cls-4" d="M83.21,62.51s11.24,8.71,11.24,8.73c3.33-2.59,3.63-8.73,3.33-8.73,0-8.1-6.52-14.13-14.57-14.13A14.36,14.36,0,0,0,68.64,62.51c0,2.19,1,7.23,3.17,8.73C72,71.24,83.21,62.51,83.21,62.51Z"/><path class="cls-4" d="M37.72,96.06,79.9,63.67a7.7,7.7,0,0,1,3.46-1.15,7.7,7.7,0,0,1,3.46,1.15L106.27,79.4l-.15-32.89H37.72Z"/><line class="cls-4" x1="83.21" y1="60.91" x2="37.86" y2="76.01"/></g></svg>