<svg xmlns="http://www.w3.org/2000/svg" width="12.761" height="12.668" viewBox="0 0 12.761 12.668">
    <defs>
        <style>
            .cls-1{fill:#fff;stroke:#0d4dad}
        </style>
    </defs>
    <path id="Path_162" d="M7.982 5.788l3.29-3.288a1.034 1.034 0 0 0 0-1.463L10.541.3a1.034 1.034 0 0 0-1.463 0l-3.29 3.294L2.5.3a1.034 1.034 0 0 0-1.466 0L.3 1.034A1.034 1.034 0 0 0 .3 2.5l3.294 3.288L.3 9.078a1.034 1.034 0 0 0 0 1.463l.731.731a1.034 1.034 0 0 0 1.463 0l3.294-3.29 3.291 3.291a1.034 1.034 0 0 0 1.463 0l.731-.731a1.034 1.034 0 0 0 0-1.463z" class="cls-1" data-name="Path 162" transform="translate(.593 .593)"/>
</svg>
